/* XPM */
static char * D:\projects 2\KryptoFranc\kryptofranccore\share\pixmaps\bitcoin32_xpm[] = {
"32 32 537 2",
"  	c None",
". 	c #D2DBEC",
"+ 	c #5B74B8",
"@ 	c #6A81B9",
"# 	c #6B81B9",
"$ 	c #5B6DAE",
"% 	c #92C4EA",
"& 	c #FF8F7E",
"* 	c #EA0000",
"= 	c #FF9C8C",
"- 	c #3779C7",
"; 	c #00167D",
"> 	c #0D338D",
", 	c #0B318C",
"' 	c #092B88",
") 	c #002D98",
"! 	c #BEBCCF",
"~ 	c #FF281A",
"{ 	c #DE0004",
"] 	c #E30717",
"^ 	c #DD0000",
"/ 	c #FF4A36",
"( 	c #92C0E2",
"_ 	c #001787",
": 	c #0E338C",
"< 	c #052C89",
"[ 	c #032988",
"} 	c #052B89",
"| 	c #0C338D",
"1 	c #00187C",
"2 	c #2D81D1",
"3 	c #FFA898",
"4 	c #EC0000",
"5 	c #E20313",
"6 	c #E30614",
"7 	c #E00002",
"8 	c #E00001",
"9 	c #F30000",
"0 	c #C89DA8",
"a 	c #0048B0",
"b 	c #2A4498",
"c 	c #6B84C1",
"d 	c #91A5D7",
"e 	c #A6B7E1",
"f 	c #98ABDB",
"g 	c #7189C5",
"h 	c #4866AE",
"i 	c #001384",
"j 	c #6A97CC",
"k 	c #FE4434",
"l 	c #DF0000",
"m 	c #E00000",
"n 	c #FF2517",
"o 	c #FF3324",
"p 	c #FF3728",
"q 	c #EB0D09",
"r 	c #F96A5E",
"s 	c #B2DFFA",
"t 	c #BFC6F1",
"u 	c #FEFFFF",
"v 	c #E9E6DE",
"w 	c #D2CDC1",
"x 	c #DED6BF",
"y 	c #DFD7C3",
"z 	c #EEEBE3",
"A 	c #FBFAF9",
"B 	c #E1DAF5",
"C 	c #80B6F2",
"D 	c #D9B5B8",
"E 	c #F32119",
"F 	c #FF3A2C",
"G 	c #FF4031",
"H 	c #FF3B2D",
"I 	c #FF3121",
"J 	c #D2D3E7",
"K 	c #8890BF",
"L 	c #9FA4C6",
"M 	c #9DA6C9",
"N 	c #737CB2",
"O 	c #D0C6D7",
"P 	c #FFFFFF",
"Q 	c #F3F9F3",
"R 	c #A39E90",
"S 	c #72706A",
"T 	c #9B9785",
"U 	c #ABA69A",
"V 	c #86888E",
"W 	c #7B7E84",
"X 	c #5D5A53",
"Y 	c #656460",
"Z 	c #B9B8AE",
"` 	c #FDF9F3",
" .	c #DBDAE7",
"..	c #6F7DB6",
"+.	c #91A0C9",
"@.	c #9EADD0",
"#.	c #919CC5",
"$.	c #979DC8",
"%.	c #FFFEFE",
"&.	c #F8F9FC",
"*.	c #1F3A91",
"=.	c #001C85",
"-.	c #01409E",
";.	c #000B81",
">.	c #4F6EBB",
",.	c #FDFFFF",
"'.	c #979FA0",
").	c #545252",
"!.	c #8D8D8D",
"~.	c #E0E1E4",
"{.	c #A6ADD0",
"].	c #B8D0F8",
"^.	c #2456BE",
"/.	c #7382C8",
"(.	c #F0E9D0",
"_.	c #61605E",
":.	c #000000",
"<.	c #1D1B19",
"[.	c #6E8BC7",
"}.	c #000D80",
"|.	c #002E92",
"1.	c #043F9C",
"2.	c #000978",
"3.	c #8B99C6",
"4.	c #7E90C1",
"5.	c #001E81",
"6.	c #3559A2",
"7.	c #7987BE",
"8.	c #82807C",
"9.	c #505050",
"0.	c #E9E9EA",
"a.	c #D2CCCF",
"b.	c #001486",
"c.	c #4B6BB2",
"d.	c #7B7FAF",
"e.	c #4058A8",
"f.	c #8392CC",
"g.	c #AAAAA3",
"h.	c #A3A4A4",
"i.	c #969696",
"j.	c #707070",
"k.	c #F0F0EE",
"l.	c #A3AED2",
"m.	c #002082",
"n.	c #2B4B9A",
"o.	c #1E4396",
"p.	c #0C2F8C",
"q.	c #E8EAF4",
"r.	c #E1E4F0",
"s.	c #0A2C89",
"t.	c #284B9A",
"u.	c #042887",
"v.	c #4F67AC",
"w.	c #94928E",
"x.	c #585858",
"y.	c #A29E93",
"z.	c #3F567C",
"A.	c #84A0D8",
"B.	c #FF2A13",
"C.	c #FF7148",
"D.	c #407DC6",
"E.	c #112E8C",
"F.	c #AFAFAF",
"G.	c #2C2C2C",
"H.	c #646464",
"I.	c #8090C1",
"J.	c #001F82",
"K.	c #3857A2",
"L.	c #002384",
"M.	c #5E74B2",
"N.	c #4F68AB",
"O.	c #244898",
"P.	c #12328D",
"Q.	c #F6F7FE",
"R.	c #DCDAD1",
"S.	c #414142",
"T.	c #FAFAFA",
"U.	c #C8C5BA",
"V.	c #5A5A61",
"W.	c #022BA5",
"X.	c #6C7BB4",
"Y.	c #FF7960",
"Z.	c #9B4F73",
"`.	c #3861B1",
" +	c #F9FAFF",
".+	c #FEFDFB",
"++	c #6E6E6D",
"@+	c #878786",
"#+	c #ECECEC",
"$+	c #565756",
"%+	c #A9A9A9",
"&+	c #37529F",
"*+	c #0C318D",
"=+	c #2D4E9C",
"-+	c #012585",
";+	c #B4BFDB",
">+	c #C6E7FF",
",+	c #00167C",
"'+	c #2F529E",
")+	c #002083",
"!+	c #8599C8",
"~+	c #636362",
"{+	c #B1B2B2",
"]+	c #636360",
"^+	c #C0BFC0",
"/+	c #D0D1ED",
"(+	c #112F8B",
"_+	c #2F70C3",
":+	c #477ACF",
"<+	c #324CA4",
"[+	c #FCFCFB",
"}+	c #EDEDED",
"|+	c #070706",
"1+	c #D7D7D6",
"2+	c #BAC3DE",
"3+	c #002485",
"4+	c #3456A1",
"5+	c #001C7E",
"6+	c #3E60AE",
"7+	c #4379C4",
"8+	c #082284",
"9+	c #1D4095",
"0+	c #F5F7FD",
"a+	c #F3F1EA",
"b+	c #606061",
"c+	c #D8D8D8",
"d+	c #6A6A6A",
"e+	c #606FB5",
"f+	c #707DAE",
"g+	c #70706F",
"h+	c #BAB9B5",
"i+	c #F6F6F6",
"j+	c #ABAAAA",
"k+	c #656564",
"l+	c #6B6B6B",
"m+	c #D1D1D1",
"n+	c #3855A1",
"o+	c #10338B",
"p+	c #0342A4",
"q+	c #ACB0CC",
"r+	c #D6CED7",
"s+	c #002E9C",
"t+	c #4C63A5",
"u+	c #B4B3B0",
"v+	c #A3A3A3",
"w+	c #8C8C8C",
"x+	c #C3C1B8",
"y+	c #6C6A64",
"z+	c #7D7D7D",
"A+	c #C7C7C7",
"B+	c #9A9A9A",
"C+	c #4F4F4F",
"D+	c #A7A7A6",
"E+	c #889BC8",
"F+	c #000071",
"G+	c #62A9E5",
"H+	c #FF8671",
"I+	c #FF6E56",
"J+	c #448CD2",
"K+	c #5774B8",
"L+	c #9E9E9D",
"M+	c #929292",
"N+	c #909090",
"O+	c #8B8B8B",
"P+	c #D5D4D4",
"Q+	c #5F5F5F",
"R+	c #9B9B9B",
"S+	c #7B7B7B",
"T+	c #898989",
"U+	c #ABB0D2",
"V+	c #0538A5",
"W+	c #E0C0C0",
"X+	c #F80900",
"Y+	c #E0010E",
"Z+	c #E1030F",
"`+	c #F00000",
" @	c #CB909C",
".@	c #B2DDF7",
"+@	c #A6A6A6",
"@@	c #90908F",
"#@	c #949494",
"$@	c #BDBDBD",
"%@	c #3E3F3E",
"&@	c #676767",
"*@	c #B7B7B7",
"=@	c #A2B8DC",
"-@	c #78A6DA",
";@	c #FF5341",
">@	c #E40717",
",@	c #DB0000",
"'@	c #F61811",
")@	c #FFFFFA",
"!@	c #CCCCCC",
"~@	c #737372",
"{@	c #BABABA",
"]@	c #797979",
"^@	c #BFBFBF",
"/@	c #40403F",
"(@	c #C8C8C8",
"_@	c #828282",
":@	c #848484",
"<@	c #F6FFFF",
"[@	c #F79186",
"}@	c #E10000",
"|@	c #E30415",
"1@	c #E30613",
"2@	c #E30617",
"3@	c #EF463E",
"4@	c #F7FFFF",
"5@	c #555555",
"6@	c #DDDDDD",
"7@	c #F5F5F5",
"8@	c #5D5D5C",
"9@	c #EFEFEF",
"0@	c #F0F0F0",
"a@	c #7F7F7F",
"b@	c #484848",
"c@	c #C3C3C3",
"d@	c #878787",
"e@	c #7E7E7E",
"f@	c #DEECFC",
"g@	c #DF9695",
"h@	c #E00310",
"i@	c #DE0007",
"j@	c #FF1E11",
"k@	c #9BA4C2",
"l@	c #79A9DC",
"m@	c #939393",
"n@	c #616161",
"o@	c #7B7B7C",
"p@	c #808080",
"q@	c #F8F8F8",
"r@	c #7A7A7A",
"s@	c #92A5D4",
"t@	c #4D8FD4",
"u@	c #FF7760",
"v@	c #E70000",
"w@	c #FFA795",
"x@	c #1A6BC5",
"y@	c #3D57A2",
"z@	c #565656",
"A@	c #7F7F7E",
"B@	c #F7F7F7",
"C@	c #444444",
"D@	c #E4E4E4",
"E@	c #818181",
"F@	c #545453",
"G@	c #DFDFDF",
"H@	c #CACACA",
"I@	c #383737",
"J@	c #9FAAD3",
"K@	c #001E92",
"L@	c #C8C8D6",
"M@	c #FF1C0F",
"N@	c #DE0005",
"O@	c #9FABCB",
"P@	c #001C8B",
"Q@	c #2E4C9A",
"R@	c #FBFBFD",
"S@	c #575758",
"T@	c #5C5C5C",
"U@	c #DADADA",
"V@	c #C0C0C0",
"W@	c #D3D3D3",
"X@	c #5E5E5D",
"Y@	c #C7C7C8",
"Z@	c #7A7A79",
"`@	c #585757",
" #	c #B9B8B8",
".#	c #5570B0",
"+#	c #000C76",
"@#	c #4591DC",
"##	c #FFA292",
"$#	c #D7FFFF",
"%#	c #113591",
"&#	c #213F92",
"*#	c #002585",
"=#	c #AAB5D5",
"-#	c #989898",
";#	c #606060",
">#	c #9C9C9C",
",#	c #4E4D4D",
"'#	c #171716",
")#	c #C2C2C1",
"!#	c #DADFED",
"~#	c #0A2D8A",
"{#	c #264C9A",
"]#	c #002C90",
"^#	c #8299C8",
"/#	c #D0D5EA",
"(#	c #062989",
"_#	c #254999",
":#	c #11358E",
"<#	c #33509D",
"[#	c #A1A1A1",
"}#	c #121211",
"|#	c #848584",
"1#	c #C4C4C4",
"2#	c #525252",
"3#	c #5C73B2",
"4#	c #002686",
"5#	c #3958A2",
"6#	c #00187B",
"7#	c #718AC3",
"8#	c #8696C5",
"9#	c #001C81",
"0#	c #3758A2",
"a#	c #8494C4",
"b#	c #C7C7C6",
"c#	c #959595",
"d#	c #B8C2DD",
"e#	c #2F509D",
"f#	c #11348E",
"g#	c #2A4899",
"h#	c #FAFAFC",
"i#	c #FDFCFD",
"j#	c #284597",
"k#	c #133790",
"l#	c #294C9B",
"m#	c #002183",
"n#	c #FAFAFB",
"o#	c #DFE1EE",
"p#	c #11308B",
"q#	c #183B92",
"r#	c #32539F",
"s#	c #001D81",
"t#	c #B6BEDB",
"u#	c #B5BCDB",
"v#	c #00177F",
"w#	c #234697",
"x#	c #0E318B",
"y#	c #001A7F",
"z#	c #A4AED2",
"A#	c #E6E7E6",
"B#	c #666665",
"C#	c #CDCDCC",
"D#	c #D4D4D2",
"E#	c #C8CCE2",
"F#	c #0C2887",
"G#	c #002584",
"H#	c #2A4B99",
"I#	c #4A63A9",
"J#	c #586DAE",
"K#	c #0A3E9F",
"L#	c #327CCB",
"M#	c #1862BA",
"N#	c #0045AA",
"O#	c #86BDEF",
"P#	c #7D7E7E",
"Q#	c #ADD9FD",
"R#	c #1454B3",
"S#	c #0B57B4",
"T#	c #3078C7",
"U#	c #1F6BC1",
"V#	c #14409B",
"W#	c #DCDEED",
"X#	c #FFFFFE",
"Y#	c #DCBAC4",
"Z#	c #E28F93",
"`#	c #E79FA0",
" $	c #DB9599",
".$	c #BF7180",
"+$	c #E7D6D8",
"@$	c #A8C9EF",
"#$	c #F9F9FD",
"$$	c #DED8C8",
"%$	c #686152",
"&$	c #FFFFF6",
"*$	c #99ABD6",
"=$	c #B9C7E1",
"-$	c #CC8E98",
";$	c #D1868F",
">$	c #E9A0A1",
",$	c #E39A9D",
"'$	c #DB8C94",
")$	c #EFD5D9",
"!$	c #EB0000",
"~$	c #F40000",
"{$	c #F50000",
"]$	c #FC4033",
"^$	c #7199D1",
"/$	c #15379B",
"($	c #44588A",
"_$	c #8794B5",
":$	c #C3CEE8",
"<$	c #C3CCE3",
"[$	c #BEC7E0",
"}$	c #A4B2D4",
"|$	c #8395C4",
"1$	c #28348D",
"2$	c #1765C2",
"3$	c #E28B88",
"4$	c #F60000",
"5$	c #E20111",
"6$	c #E20010",
"7$	c #FFA695",
"8$	c #2570C6",
"9$	c #001E89",
"0$	c #1A42A0",
"a$	c #092E8A",
"b$	c #0F338E",
"c$	c #0D318D",
"d$	c #022988",
"e$	c #002382",
"f$	c #002B98",
"g$	c #BFC6D7",
"h$	c #FF2516",
"i$	c #DE0001",
"j$	c #E20213",
"k$	c #E30715",
"l$	c #FF2619",
"m$	c #BDC6D8",
"n$	c #003DA1",
"o$	c #274997",
"p$	c #2A4B9B",
"q$	c #28499A",
"r$	c #294A9A",
"s$	c #30539E",
"t$	c #002487",
"u$	c #60A8E4",
"v$	c #FF7F6A",
"w$	c #E20000",
"x$	c #FF816C",
"y$	c #5E97D4",
"z$	c #000F7D",
"A$	c #082F8B",
"B$	c #072D8A",
"C$	c #072E8B",
"D$	c #0E52B3",
"E$	c #E5B4B2",
"F$	c #F70800",
"G$	c #F0E6EB",
"H$	c #A9B5DB",
"I$	c #AEBAD9",
"J$	c #AFBBDA",
"K$	c #A3ABD1",
"L$	c #D0EDFF",
"                        . + @ # # $ % &                         ",
"                    * = - ; > , , ' ) ! ~ {                     ",
"                ] ^ / ( _ : < [ } | 1 2 3 4 5 6                 ",
"            7 8 8 9 0 a b c d e f g h i j k l m l l             ",
"          n o p q r s t u v w x y z A B C D E F G H I           ",
"      J K L M N O P Q R S T U V W X Y Z ` P  ...+.@.#.$.%.      ",
"    &.*.=.-.;.>.,.'.).!.~.{.].^./.(._.:.<.P P [.}.|.1.2.3.      ",
"    4.5.6.5.7.P 8.9.0.P a.b.c.d.e.f.g.h.i.j.k.P l.m.n.o.p.q.    ",
"  r.s.t.u.v.P w.x.P P y.z.A.B.C.D.E.P P F.G.H.P P I.J.K.L.M.    ",
"  N.u.O.P.Q.R.S.T.P U.V.W.X.Y.Z.`. +.+++@+#+$+%+P P &+*+=+-+;+  ",
">+,+'+)+!+P ~+{+P P ]+^+/+(+_+:+<+P [+}+P x.|+1+P P 2+3+4+5+6+  ",
"  7+8+9+0+a+b+P P c+d+P P e+f+g+h+P P P i+j+k+l+m+P P n+o+p+q+  ",
"  r+s+t+P u+@+P P v+w+P P P P x+y+~+z+A+P P P B+C+D+P E+F+G+H+  ",
"m I+J+K+P L+M+P P N+O+P P P P P P P+N+Q+R+P P P S+T+P U+V+W+X+Y+",
"Z+`+ @.@P +@@@P P #@O+P P P P P P P P $@%@P P P &@*@P =@-@;@^ >@",
"] ,@'@)@P !@~@P P {@]@P P P P P P P ^@/@(@P P P _@:@P <@[@}@|@1@",
"2@m 3@4@P T.5@6@P 7@8@9@P P P P 0@a@b@c@P P P P d@e@P f@g@* h@1@",
"i@j@k@l@P P m@n@P P o@w+P P P R+5@p@q@P P P P P R+r@P s@t@u@}@2@",
"v@w@x@y@P P P z@A@P B@C@D@P E@F@G@P P P P P P P H@I@P J@K@L@M@N@",
"  O@P@Q@R@P P q@S@T@U@V@S+W@X@P P P P P P P Y@Z@`@ #P .#+#@###  ",
"$#%#&#*#=#P P P P -#;#>#,#'#)#P P P P P P O+z@M+0@P !#~#{#]#^#  ",
"/#(#_#:#<#P P P P P P !@[#}#|#P P P P P 1#2#P P P P 3#4#5#6#7#  ",
"  8#9#0#J.a#P P P P P P P b#Q+P P P P P i.c#P P P d#J.e#f#g#h#  ",
"  i#j#k#l#m#;+P P P P P P n#&@9@P P P P S+r@P P o#p#q#r#s#t#    ",
"    u#v#w#x#y#z#P P P P P A#B#q@P P P P C#D#P E#F#G#H#5.I#      ",
"      J#K#L#M#N#O#,.P P P P#e@P P P P P P P Q#R#S#T#U#V#W#      ",
"      X#Y#Z#`# $.$+$@$#$$$%$&$P P P P P *$=$-$;$>$,$'$)$        ",
"          !$~${$9 ]$^$/$($_$:$<$[$}$|$1$2$3$4${$9 9             ",
"              5$6$!$7$8$9$0$a$b$c$d$e$f$g$h$i$j$5$              ",
"                k$N@l$m$n$o$p$q$r$s$t$u$v$w$] 1@                ",
"                    w$x$y$z$A$B$C$s#D$E$F$                      ",
"                        G$H$I$I$J$K$L$                          "};
