/* XPM */
static char * D:\projects 2\KryptoFranc\kryptofranccore\share\pixmaps\bitcoin16_xpm[] = {
"16 16 173 2",
"  	c None",
". 	c #FC9594",
"+ 	c #6581BA",
"@ 	c #20479B",
"# 	c #1B4FA4",
"$ 	c #9887AE",
"% 	c #FF817A",
"& 	c #FF6C66",
"* 	c #FA0000",
"= 	c #A9456D",
"- 	c #2D72C5",
"; 	c #506DAE",
"> 	c #496EB6",
", 	c #4983D1",
"' 	c #CA1C33",
") 	c #F90000",
"! 	c #BD97B0",
"~ 	c #A61A39",
"{ 	c #EE7F88",
"] 	c #B5C9D5",
"^ 	c #D0D4D0",
"/ 	c #D1DBD8",
"( 	c #C4C0B8",
"_ 	c #8AA2A8",
": 	c #D7D6E3",
"< 	c #DF6173",
"[ 	c #98193C",
"} 	c #CDB2C3",
"| 	c #90A2CB",
"1 	c #000F7E",
"2 	c #7AB2E9",
"3 	c #D2F5EE",
"4 	c #EAE8D8",
"5 	c #B2B3C1",
"6 	c #756BA1",
"7 	c #69739A",
"8 	c #897F72",
"9 	c #C3CABC",
"0 	c #EBFFFF",
"a 	c #2E73C5",
"b 	c #001B83",
"c 	c #001E81",
"d 	c #5A76BA",
"e 	c #E5E0D3",
"f 	c #E7E4DA",
"g 	c #D7E3EA",
"h 	c #53538D",
"i 	c #84275E",
"j 	c #9BA8DC",
"k 	c #FCFFFF",
"l 	c #80807E",
"m 	c #D6D1C2",
"n 	c #F7FEFF",
"o 	c #022081",
"p 	c #2F509E",
"q 	c #95B3DA",
"r 	c #001E88",
"s 	c #C7CAD7",
"t 	c #EDE6D7",
"u 	c #F5F5F4",
"v 	c #C9C9C5",
"w 	c #A7B3D8",
"x 	c #516599",
"y 	c #BEC4CE",
"z 	c #FFFFFC",
"A 	c #B7B8B8",
"B 	c #818181",
"C 	c #FFFFF8",
"D 	c #7E94C8",
"E 	c #001E87",
"F 	c #E27B87",
"G 	c #7E8ABF",
"H 	c #C7D4D8",
"I 	c #E7E5E2",
"J 	c #E5E5E6",
"K 	c #D5D3D1",
"L 	c #FFFFFF",
"M 	c #F6F9F2",
"N 	c #CECBC3",
"O 	c #BDBCBD",
"P 	c #EDEDED",
"Q 	c #DFDFDF",
"R 	c #D8D1C4",
"S 	c #AFD8F5",
"T 	c #5E5995",
"U 	c #FF4948",
"V 	c #EB0000",
"W 	c #FF8E8F",
"X 	c #D8FAFB",
"Y 	c #DADBDB",
"Z 	c #E8E8E8",
"` 	c #C8C8C8",
" .	c #A5A5A4",
"..	c #D0D0CF",
"+.	c #C3C6C3",
"@.	c #F6FFFF",
"#.	c #EC4951",
"$.	c #E90000",
"%.	c #EE080F",
"&.	c #EB858F",
"*.	c #F9FFFF",
"=.	c #BCBCB9",
"-.	c #ECECEC",
";.	c #CFCFCF",
">.	c #E2E2E2",
",.	c #B1B1B0",
"'.	c #C4C6C0",
").	c #D9F7FB",
"!.	c #E14D5C",
"~.	c #EE0000",
"{.	c #D792A0",
"].	c #4462A7",
"^.	c #FEFFFF",
"/.	c #E0DFDB",
"(.	c #BFBFBF",
"_.	c #B9B9B9",
":.	c #B3B3B3",
"<.	c #C7C7C7",
"[.	c #E6E6E6",
"}.	c #DED6C6",
"|.	c #8DB6DE",
"1.	c #475298",
"2.	c #FD595B",
"3.	c #93B7DF",
"4.	c #000878",
"5.	c #B6C3DE",
"6.	c #E7E7E7",
"7.	c #C2C2C1",
"8.	c #636362",
"9.	c #C0BFBC",
"0.	c #5A73B4",
"a.	c #002288",
"b.	c #18378F",
"c.	c #12328D",
"d.	c #E9F0F9",
"e.	c #DADADA",
"f.	c #BEBDBD",
"g.	c #F8F8F8",
"h.	c #C3C3C1",
"i.	c #A5B8DE",
"j.	c #000473",
"k.	c #5A74B2",
"l.	c #001A7E",
"m.	c #4C7CBF",
"n.	c #E0FFFF",
"o.	c #F8EFE0",
"p.	c #E1DDD4",
"q.	c #B4E0FD",
"r.	c #134CA5",
"s.	c #244398",
"t.	c #E3B9C3",
"u.	c #BD0F24",
"v.	c #DD4250",
"w.	c #A5BCDD",
"x.	c #8099B7",
"y.	c #D7D9E3",
"z.	c #DDDFEC",
"A.	c #95C3EC",
"B.	c #BAA8C5",
"C.	c #D32636",
"D.	c #C82535",
"E.	c #FF0000",
"F.	c #9D3257",
"G.	c #0048AB",
"H.	c #1B4299",
"I.	c #00308F",
"J.	c #184EA3",
"K.	c #D31E2F",
"L.	c #FE0000",
"M.	c #8194C4",
"N.	c #2C51A0",
"O.	c #2E60AF",
"P.	c #B296B3",
"          . + @ # $ %           ",
"      & * = - ; > , ' )         ",
"    ! ~ { ] ^ / ( _ : < [ }     ",
"  | 1 2 3 4 5 6 7 8 9 0 a b     ",
"  c d e f g h i j k l m n o p   ",
"q r s t u v w x y z A B C D E   ",
"F G H I J K L M N O P Q R S T U ",
"V W X Y Z ` L L L  ...L +.@.#.$.",
"%.&.*.=.-.;.L >.,...L L '.).!.~.",
"{.].^./.(._.:.<.[.L L ` }.|.1.2.",
"3.4.5.L 6.7.8.` L L (.9.L 0.a.  ",
"  b.c.d.L L e.f.L g.h.L i.j.k.  ",
"    l.m.n.L o.p.L L L q.r.s.    ",
"    t.u.v.w.x.y.z.A.B.C.D.      ",
"        E.F.G.H.I.J.K.L.        ",
"            M.N.O.P.            "};
